<svg  fill="none" id="Calque_1" data-name="Calque 1" xmlns="http://www.w3.org/2000/svg" viewBox="0 0 980 818">
    <defs><style>.cls-1,.cls-2,.cls-6{fill:#398064;}.cls-2{font-size:156.71px;}.cls-2,.cls-6{font-family:KohinoorBangla-Regular, Kohinoor Bangla;}.cls-3{letter-spacing:-0.02em;}.cls-4{letter-spacing:-0.03em;}.cls-5{letter-spacing:-0.03em;}.cls-6{font-size:98.7px;}</style></defs><title>logo 2</title><path class="cls-1" d="M387.47,181.9a216.66,216.66,0,0,0-53.21,13.76c-6.37-8.8-45.42-64.87-37.48-105.51,8.64-44.21-18.3-94.69-69.31-69.35s-27.06,77.31,13.39,97.13c37.19,18.22,58.27,83.2,61.44,93.6a217.38,217.38,0,0,0-47,38.23c-7.33-5.35-31.45-24.29-34.16-43.57-3.2-22.76-24.6-42.62-45-21.9s-.17,41.79,22.64,44.61c20.33,2.52,40.68,28.75,44.88,34.44a218.75,218.75,0,0,0-29.22,48.93c-10.86-1.75-78-13.8-101-48.1-25.15-37.37-79.9-54-98.05,0s35.53,73.8,78.15,59.21C132.6,310,193.34,340.9,203.06,346.07a218.71,218.71,0,0,0-6.27,57.63c-9.51,1.45-39.22,4.8-54.51-6.72C123.93,383.14,94.75,384.23,95,413.29s29.43,29.68,47.55,15.54c15.66-12.2,47.11-8.67,55.39-7.48a217.23,217.23,0,0,0,14.3,58.08c-8.8,6.37-64.86,45.42-105.51,37.48-44.21-8.64-94.69,18.3-69.35,69.31s77.31,27.06,97.13-13.39c18.23-37.19,83.22-58.27,93.61-61.44a216.81,216.81,0,0,0,35.28,44.24c-6.92,9.07-24.28,29.51-41.94,32-22.76,3.19-42.62,24.59-21.9,45s41.79.18,44.61-22.63C246.4,591.87,267.41,573.78,276,567a218.7,218.7,0,0,0,52.8,32.23c-1.75,10.86-13.79,78-48.1,101.05-37.37,25.15-54,79.9,0,98s73.8-35.53,59.22-78.15c-13.4-39.13,17.54-99.87,22.72-109.59a217.61,217.61,0,0,0,52.46,6.29v-123a95.31,95.31,0,0,1,0-190.62V180.07c-3.42,0-6.85.05-10.28.21"/><text class="cls-2" transform="translate(350.47 452.97)"><tspan class="cls-3">C</tspan><tspan class="cls-4" x="86.66" y="0">O</tspan><tspan x="186.64" y="0">VID</tspan><tspan class="cls-5" x="426.87" y="0">-</tspan><tspan x="474.98" y="0">19</tspan></text><text class="cls-6" transform="translate(587.47 579.6)">SCIENCE</text>
</svg>